/* XPM */
static char *result[] = {
/* columns rows colors chars-per-pixel */
"32 32 150 2 ",
"   c black",
".  c #10100F",
"X  c #101010",
"o  c #161515",
"O  c #161615",
"+  c #161616",
"@  c #1E1D1C",
"#  c #1E1D1D",
"$  c #292200",
"%  c #3D3400",
"&  c #3F3500",
"*  c #322D11",
"=  c #353116",
"-  c #343333",
";  c #353434",
":  c #3A3939",
">  c #3A3A39",
",  c #453D1B",
"<  c #463E1C",
"1  c #4C4101",
"2  c #4E4301",
"3  c #4C4518",
"4  c #4C4519",
"5  c #4E4B3F",
"6  c #4B4847",
"7  c #4B4848",
"8  c #4A4948",
"9  c #4B4948",
"0  c #4B4A48",
"q  c #4B4A49",
"w  c gray29",
"e  c #4B4A4A",
"r  c #4B4B4A",
"t  c #4B4B4B",
"y  c #4C4A4A",
"u  c #4C4B4A",
"i  c #524F45",
"p  c #534F46",
"a  c #53504F",
"s  c #53514F",
"d  c #535150",
"f  c #535151",
"g  c #535352",
"h  c #535353",
"j  c #545251",
"k  c #545352",
"l  c #545353",
"z  c #555353",
"x  c #555453",
"c  c #5B5A59",
"v  c #5C5B5A",
"b  c #5E5C5C",
"n  c #5F5E5D",
"m  c gray39",
"M  c #656363",
"N  c #696464",
"B  c #696664",
"V  c #6C6968",
"C  c #787574",
"Z  c #797675",
"A  c #7A7776",
"S  c #7B7776",
"D  c #7C7877",
"F  c #7B7978",
"G  c #7B7979",
"H  c #7C7978",
"J  c #7D7978",
"K  c #7C7A78",
"L  c #7C7A79",
"P  c #7E7A78",
"I  c #7F7A79",
"U  c #7E7B79",
"Y  c #7F7B79",
"T  c #7C7B7A",
"R  c #7C7B7B",
"E  c #7D7B7B",
"W  c #7E7B7A",
"Q  c #7F7B7A",
"!  c #7E7B7B",
"~  c #7F7C79",
"^  c #7C7C7B",
"/  c #7D7C7B",
"(  c #7F7C7A",
")  c #7E7C7B",
"_  c #7F7C7B",
"`  c #7F7D7B",
"'  c #7D7C7C",
"]  c #7D7D7C",
"[  c gray49",
"{  c #7E7C7C",
"}  c #7F7C7C",
"|  c #7E7D7C",
" . c #7F7D7C",
".. c #7E7D7D",
"X. c #7F7D7D",
"o. c #7F7E7D",
"O. c #7E7E7E",
"+. c #7F7E7E",
"@. c #7F7F7E",
"#. c gray50",
"$. c #806F0A",
"%. c #80700B",
"&. c #867609",
"*. c #807B7A",
"=. c #807C7A",
"-. c #807C7B",
";. c #807D7B",
":. c #817D7B",
">. c #807C7C",
",. c #807D7C",
"<. c #817D7C",
"1. c #807D7D",
"2. c #807E7C",
"3. c #817E7C",
"4. c #807E7D",
"5. c #817E7D",
"6. c #817F7D",
"7. c #827E7D",
"8. c #827F7D",
"9. c #807E7E",
"0. c #807F7E",
"q. c #817F7E",
"w. c #807F7F",
"e. c #817F7F",
"r. c #827F7E",
"t. c #9D8803",
"y. c #9E8A03",
"u. c #AF9804",
"i. c #B49D05",
"p. c #BDA405",
"a. c #C2A906",
"s. c #EDCE09",
"d. c #F0D109",
"f. c #F3D40A",
"g. c #F6D70A",
"h. c #81807E",
"j. c #80807F",
"k. c #81807F",
"l. c #82807E",
"z. c #83807E",
"x. c #82807F",
"c. c #83807F",
"v. c #83817F",
"b. c #808080",
"n. c #818080",
"m. c #818180",
"M. c #828080",
"N. c #828180",
"B. c #838180",
"V. c #838280",
/* pixels */
"q.q.x.x.q.<.l.h. .+.0.q.x.x.c @     O g o.x.x.k.;.l.x.4.X.0.q.x.",
"I _ ,._ -.;.;.<.Q Q Q _ A V p = $ $ * 5 B Z _ -.-.<.:.-.Q Y _ ,.",
"( ..w.0.q.B.k.n.q.6.} o.m : < %.t.y.&.3 - b [ q.B.k.M.0.l._ ..w.",
"} +.w.n.x.k.b.w.w.4. ...h + % u.s.d.p.1 X e / k.x.b.b.w.q.,.+.+.",
"=.9.9.k.k.n.@.j.k.4.,.X.g + & i.f.g.a.2 X w / k.n.w.w.n.0.;.9.+.",
"=.r.q.,.X.9.q.x.q.4.3.5.k o % u.s.d.p.1 X e L } 9.4.x.q.q.-.r.q.",
"( -.Y _ _ _ -.7.,.<._ Q a o % u.s.d.p.1 . 6 S _ } _ 3.3.,.-.-.I ",
"k.x.,...w.w.q.B.n.m.e.q.d + % u.s.d.p.1 X q F +.j.0.v.N.n.k.x.<.",
"w.0.,.o.+.k.k.k.b.w.0.o.f + % u.s.d.p.1 X q G +.w.M.k.b.b.w.0.,.",
"m.j.,.4.0.e.w.n.w.w.n.o.f + % u.s.d.p.1 X q K w.w.w.k.w.w.n.w.>.",
"5.q.-.7.6.,.) 4.4.6.5.,.s + % u.s.d.p.1 X 9 J 6.5._ 1.,.5.5.q.( ",
"P _  . .,.r.,.5._ -.Q ! f O % u.s.d.p.1 . 8 F ,.8.5.5.,.;.Y _  .",
"( o.j.w.x.N.n.n.k.q. ...h + % u.s.d.p.1 X e ^ k.B.n.m.k.x.;.o.k.",
"( +.+.n.k.k.w.w.w.4. ...g + % u.s.d.p.1 X w / k.k.b.w.w.0. .+...",
">.e.e.w.w.n.0.n.n.4.2.0.l + % u.s.d.p.1 X e E 0.n.w.k.m.w.,.e.e.",
"~ 3.3._ ! -.,.5.3.;.;.;.j o % u.s.d.p.1 X 0 H W _ ,.5.3.2.=.3.3.",
"v.6.q.,.3.Q } 4. .5.x.,.k O % u.s.d.p.1 X q L 3.Q { o.X.4.z.5.r.",
"N.n.n.k.q. .+.j.k.x.n.w.l + % u.s.d.p.1 X t / k.,.o.w.j.x.N.n.n.",
"n.w.w.e.9. .+.+.N.k.n.O.h + % u.s.d.p.1 X w R 0.,.+.X.n.k.k.w.#.",
"k.0.n.m.0.,.k.k.9.w.j.+.l + % u.s.d.p.1 X r ] k.,.q.k.0.+.k.0.k.",
">.-.3.,.;.*.;.=.Q _ _ _ j O % u.s.d.p.1 . 9 J ,.Q :.=.( Q -.-.3.",
"+.4.c.x.h.9.q.-.| 9.o.,.x + % u.s.d.p.1 X y ` q.q.5.;.{ o.9.4.l.",
"k.k.x.n.n.e.k.,.+.w.k.q.z + % u.s.d.p.1 X u ' n.k.k.2.X.#.k.k.x.",
"k.k.k.w.@.k.0.;.+.o.n.0.l + % u.s.d.p.1 X r ' #.w.w.,.X.o.w.k.x.",
"q.X.w.0.k.n.k.,.x.k.9...l + % u.s.d.p.1 X e R e.M.n.,.6.x.q.X.w.",
"3.( ;._ -.Q ;.Q -.,.;.U d o % u.s.d.p.1 . 7 D -.Q -.Q -.;.<.( ,.",
"V.k.x.0.r._ X.w.9.l.B.0.l + % u.s.d.p.1 X u T r.;.| 0.9.q.B.k.x.",
"N.b.j.e.q. .+.w.n.x.k.#.h + & i.f.g.a.2 X t R e.,.+.w.k.k.k.b.b.",
"n.#.w.k.9.` +.9.n.k.n...h + % u.s.d.p.1 X r ' 0.,.+.+.k.k.n.#.@.",
"0.9.x.k.q.;.l.q. .o.0.0.M > , $.t.y.&.4 ; n ..k.;.r.k.4.X.0.0.x.",
"( Y _ ;._ -.5.;.;.( Y ( A V i = $ $ * 5 N C  ._ ( 7.,.<.Q Q Y } ",
"r. .+.w.0.x.N.k.w.k.5.X.0.w.v #     + z _ X.w.0.l.V.k.k.0.l. ..."
};
