/* XPM */
static char *result[] = {
/* columns rows colors chars-per-pixel */
"32 32 236 2 ",
"   c black",
".  c #0E0E0E",
"X  c #0F0E0E",
"o  c #141000",
"O  c #1C1800",
"+  c #1D1800",
"@  c #1D1901",
"#  c #101010",
"$  c #231C00",
"%  c #241C00",
"&  c #241D00",
"*  c #241D01",
"=  c #201A05",
"-  c #211A05",
";  c #211B05",
":  c #211B06",
">  c #211C05",
",  c #282200",
"<  c #292200",
"1  c #2A2300",
"2  c #2B2505",
"3  c #30290C",
"4  c #30290D",
"5  c #302A0C",
"6  c #302A0D",
"7  c #292828",
"8  c gray16",
"9  c #2A2929",
"0  c #2A2A28",
"q  c #2A2A29",
"w  c #2B2A29",
"e  c #2B2A2A",
"r  c #2B2B2A",
"t  c #2F2E2D",
"y  c #2F2E2E",
"u  c #2F2F2F",
"i  c #302E2D",
"p  c #302F2E",
"a  c #302F2F",
"s  c #36342D",
"d  c #36352E",
"f  c #37352E",
"g  c #3E3B2F",
"h  c #3E3B30",
"j  c #3F3C31",
"k  c #534918",
"l  c #534A19",
"z  c #544A19",
"x  c #584D19",
"c  c #584E1A",
"v  c #5A5014",
"b  c #5A5114",
"n  c #5E5314",
"m  c #5F5314",
"M  c #736201",
"N  c #746201",
"B  c #746301",
"V  c #746302",
"C  c #4A473B",
"Z  c #4C4739",
"A  c #4C473A",
"S  c #4B483B",
"D  c #4C483A",
"F  c #4A4847",
"G  c #4B4948",
"H  c #4A4949",
"J  c #4B4A49",
"K  c #4B4A4A",
"L  c #4C4A49",
"P  c #4C4B4A",
"I  c #52504E",
"U  c #535050",
"Y  c #525150",
"T  c #535150",
"R  c #525151",
"E  c #63605F",
"W  c #63615F",
"Q  c #63625F",
"!  c #636160",
"~  c #636261",
"^  c #646160",
"/  c #646261",
"(  c #646363",
")  c #656462",
"_  c #646463",
"`  c #656463",
"'  c #676766",
"]  c #686564",
"[  c #686664",
"{  c #696665",
"}  c #686666",
"|  c #696766",
" . c #686767",
".. c #6A6766",
"X. c #6A6868",
"o. c #726F6E",
"O. c #736F6E",
"+. c #72706E",
"@. c #73706F",
"#. c #737170",
"$. c #747170",
"%. c #757473",
"&. c #777573",
"*. c #767474",
"=. c #767574",
"-. c #787777",
";. c #797777",
":. c #7B7776",
">. c #7A7877",
",. c gray47",
"<. c #797878",
"1. c #7A7878",
"2. c #7B7A7A",
"3. c #7C7A79",
"4. c #7D7A79",
"5. c #7D7B79",
"6. c #7F7A79",
"7. c #7E7B79",
"8. c #7F7B79",
"9. c #7D7B7A",
"0. c #7C7B7B",
"q. c #7F7B7A",
"w. c #7D7C7B",
"e. c #7F7C7A",
"r. c #7E7C7B",
"t. c #7F7C7B",
"y. c #7F7C7C",
"u. c #7F7D7C",
"i. c #7E7D7D",
"p. c #7F7D7D",
"a. c #7F7E7D",
"s. c #7F7E7E",
"d. c #7F7F7E",
"f. c gray50",
"g. c #857302",
"h. c #847403",
"j. c #857403",
"k. c #867402",
"l. c #867504",
"z. c #867604",
"x. c #867605",
"c. c #8A7903",
"v. c #8E7B03",
"b. c #8B7A08",
"n. c #8C7A08",
"m. c #8C7B08",
"M. c #8D7B08",
"N. c #907E03",
"B. c #807C7A",
"V. c #807C7B",
"C. c #807D7B",
"Z. c #807C7C",
"A. c #807D7C",
"S. c #817D7C",
"D. c #817E7C",
"F. c #807E7D",
"G. c #817E7D",
"H. c #807E7E",
"J. c #807F7E",
"K. c #817F7E",
"L. c #807F7F",
"P. c #827F7E",
"I. c #9A8603",
"U. c #9B8703",
"Y. c #9D8903",
"T. c #9F8B04",
"R. c #AF9403",
"E. c #AF9503",
"W. c #BBA406",
"Q. c #CBAF05",
"!. c #CCAF05",
"~. c #D8B303",
"^. c #DCB101",
"/. c #DDB201",
"(. c #DDB402",
"). c #D7BA07",
"_. c #D7BB07",
"`. c #DEBB04",
"'. c #D7BB08",
"]. c #E0B602",
"[. c #E0B702",
"{. c #E0BB03",
"}. c #E3BB03",
"|. c #E3BD03",
" X c #E4BC03",
".X c #E4BD03",
"XX c #E5BD03",
"oX c #E5BE03",
"OX c #E6BE03",
"+X c #E6BF03",
"@X c #DFC006",
"#X c #E6C003",
"$X c #E7C003",
"%X c #E7C103",
"&X c #E3C306",
"*X c #E4C406",
"=X c #E5C506",
"-X c #E8C203",
";X c #E9C203",
":X c #E9C303",
">X c #E9C403",
",X c #EAC403",
"<X c #EAC504",
"1X c #EBC604",
"2X c #E7C807",
"3X c #E7C907",
"4X c #EAC906",
"5X c #EECA05",
"6X c #EDCA06",
"7X c #EFCD06",
"8X c #EFCE06",
"9X c #E7C909",
"0X c #F1D007",
"qX c #F2D107",
"wX c #F2D207",
"eX c #F3D207",
"rX c #F3D307",
"tX c #F4D407",
"yX c #F4D507",
"uX c #F5D607",
"iX c #F5D609",
"pX c #F6D709",
"aX c #F6D809",
"sX c #F7D809",
"dX c #F7D909",
"fX c #F8D909",
"gX c #81807E",
"hX c #80807F",
"jX c #81807F",
"kX c #82807E",
"lX c #82807F",
"zX c #808080",
"xX c #818080",
"cX c #818180",
"vX c #828180",
"bX c #838280",
/* pixels */
"K.K.lXlXK.S.kXgXu.2.K #                 # P r.jXC.kXlXF.p.J.K.lX",
"6.t.A.t.V.5.+.{ { E Z 6 < < , , , , < < 5 D ^ ..] @.7.V.q.8.t.A.",
"e.i.L.J.K.>.R u 8 0 x m.Y.U.I.I.I.I.U.Y.m.c q 8 a R ;.J.kXt.i.L.",
"y.s.L.s.1.) j ; o % M Q.4X=X&X&X&X&X=X4XQ.M & o > j _ ,.u.A.s.s.",
"B.H.H.=.R f n z.c.v.E.~.OX X}.}.}.}. XOX~.E.v.c.x.m d R %.C.H.s.",
"B.G.3.! t 2 g._.2X@X`.(././././././././.(.`.@X2X).g.2 i / :.G.K.",
"e.O.I g v h.W.9X6X#X$X,X<X<X<X<X<X<X<X<X,X$X#X6X9XW.j.b h U O.6.",
"jXX.y = k.).9X*X{.(.oX8XrXwXwXwXwXwXwXrX8XoX(.{.*X9X_.k.: a X.S.",
"L.' w O N.3X6X{.|.%X;X:X:X:X:X:X:X:X:X:X:X;X%X|.{.6X3XN.@ e ' A.",
"cX_ 7 % v.@X#X(.%X8X1X].^././././././.^.].1X8X%X(.#X@Xv.% 8 ( Z.",
"G S k N R.`.$XoX;X1X:XoX.X.XXXXXXXXX.X.XoX-X<X-XoX$X`.R.N l S F ",
". 4 b.Q.~.(.,X8X:X].oX7XeXwXqXqXqXqXwXeX7X+X[.:X8X>X(.~.!.b.4 X ",
"  1 T.4XOX/.<XrX:X^..XeXfXsXsXsXsXsXsXdXtX1XoX5XtX,X/.OX4XT.1   ",
"  < U.=X X/.<XwX:X/..XwXsXpXpXpXpXpXpXpXuXwX0XtXtX>X/. X=XU.<   ",
"  , I.&X}./.<XwX:X/.XXqXsXpXpXpXpXpXuXuXpXpXaXdXyX:X/.}.&XI.,   ",
"  , I.&X}./.<XwX:X/.XXqXsXpXpXpXpXpXiXuXpXpXpXsXyX:X/.}.&XI.,   ",
"  , I.&X}./.<XwX:X/.XXqXsXpXpXpXpXpXiXuXpXpXpXsXyX:X/.}.&XI.,   ",
"  , I.&X}./.<XwX:X/.XXqXsXpXpXpXpXpXuXuXpXpXaXdXyX:X/.}.&XI.,   ",
"  < U.=X X/.<XwX:X/..XwXsXpXpXpXpXpXpXpXuXwX0XtXtX>X/. X=XU.<   ",
"  1 T.4XOX/.<XrX:X^..XeXfXsXsXsXsXsXsXdXtX1XoX5XtX,X/.OX4XT.1   ",
"X 4 n.!.~.(.,X8X:X].oX7XeXwXqXqXqXqXwXeX7X+X[.:X8X>X(.~.Q.n.4 X ",
"H C z B R.`.$XoX;X1X:XoX.X.XXXXXXXXX.X.XoX-X<X-XoX$X`.R.M l C L ",
"jX` 9 * v.@X#X(.%X8X1X].^././././././.^.].1X8X%X(.#X@Xv.$ 8 ` lX",
"jX .r + N.3X6X{.|.%X;X:X:X:X:X:X:X:X:X:X:X;X%X|.{.6X3XN.O e  .lX",
"K.} u - k.'.9X*X{.(.oX8XrXwXwXwXwXwXwXrX8XoX(.{.*X9X).k.; p } L.",
"D.o.T g v h.W.9X6X#X$X,X<X<X<X<X<X<X<X<X,X$X#X6X9XW.h.v g T o.A.",
"bXJ.9.~ i 2 g.).2X@X`.(././././././././.(.`.@X2X).g.2 i / r.J.lX",
"vXzXhX*.Y s n l.c.v.E.~.OX X}.}.}.}. XOX~.E.v.c.l.n d R =.jXzXzX",
"xXf.L.a.-.Q h ; o & V Q.4X=X&X&X&X&X=X4X!.M * o ; h ~ <.a.xXf.d.",
"J.H.lXjXK.&.T y 7 0 c M.Y.U.I.I.I.I.U.Y.M.c q 8 t T -.F.p.J.J.lX",
"e.8.t.C.t.4.#.[ ..W Z 5 < < , , , , < < 3 A / | ] $.9.S.q.q.8.y.",
"P.u.s.L.J.lXvXjXL.w.J #                 # H 0.J.kXbXjXjXJ.kXu.i."
};
