/* XPM */
static char *result[] = {
/* columns rows colors chars-per-pixel */
"32 32 68 1 ",
"  c black",
". c #131103",
"X c #1B1601",
"o c #1C1800",
"O c #171508",
"+ c #101010",
"@ c #292200",
"# c #26200B",
"$ c #292509",
"% c #302A0C",
"& c #2C2B2B",
"* c #302F2F",
"= c #32312F",
"- c #353433",
"; c #3C3A34",
": c #3E3B38",
"> c #4F481B",
", c #544B16",
"< c #564C18",
"1 c #6B5D03",
"2 c #6F6001",
"3 c #776702",
"4 c #7F6D04",
"5 c #4A463C",
"6 c #4B4740",
"7 c #4B4A4A",
"8 c #565554",
"9 c #585655",
"0 c #595857",
"q c #5D5B5B",
"w c #615E5E",
"e c #676565",
"r c #696766",
"t c #696867",
"y c #6C6C6B",
"u c #706E6E",
"i c #777473",
"p c #787675",
"a c #7B7876",
"s c #7E7C7B",
"d c #837305",
"f c #8B7903",
"g c #8C7A08",
"h c #907D03",
"j c #807E7D",
"k c #9A8603",
"l c #9D8903",
"z c #A68D03",
"x c #B19603",
"c c #C7AB05",
"v c #CBAF05",
"b c #CFB106",
"n c #D1B407",
"m c #DCB201",
"M c #DCBA04",
"N c #E0B702",
"B c #E4BD03",
"V c #DFC106",
"C c #E5C205",
"Z c #E9C403",
"A c #EDCA05",
"S c #F0CF07",
"D c #F3D307",
"F c #F6D709",
"G c #F7D809",
"H c #F8DA09",
"J c #81807F",
"K c #818180",
/* pixels */
"jJKjjjjJja7+        +7sJsJJjsjjj",
"jsjsjjjjie5%@@@@@@@@%5eiajjsjsjj",
"ssjjKKjs0=<glllkkkllg,-0jKKKJssj",
"sjjKKsae:$2vZCCCCCCAv2$:rasKJjsj",
"jjjjKa8-<dxmBBBBMBBBMxd<-0ajjjjs",
"jJjsst-#3bBNmmmNmmmmmCb3#-tsjjJj",
"ajji8;<4xNZZZZZZZZZZZZNx4<;9ijjj",
"Jjjy-O3nBmBDDDDDFDDFSBmBn3O-ujjj",
"jJjy-.4CZmCDDABBZDHHDBmZC4.=yJJs",
"KJjt&O4MCmBDSNmmBSFHDBmZM4O*yJJs",
"jpw5>1zMZCCZZBBBBZZDDABZMz2>5wps",
"sr-#4cmmZSZNBSDDZBBZFDSBmnc4#-ts",
"je&XhZZmBDAmNSHHDZBSGHDZmZAfo&eK",
"je&XfCBmZDAmBSFFFSSDGGDBmCVfo&es",
"jr&XfVBmZDZmBSFFFFHFGGDBmBCfX&tK",
"ae&XfVBmCDZmNSFFFFFFGHDBmBMfX&ej",
"Je&ofVBmZDZmBSHFFFFFHFDBNBCfO&rJ",
"Kt&ofCBmBDZNBSFFFFFFDHDBmBBfo&rJ",
"Kt&ofCBmZDZNNSFFDDSDHFFBmBZho&eK",
"Jt&ogCBmZDZmBSHFDZBSHHDZmBZho&eK",
"st-#4cMmZSANBSDDSNBZHFSBmnv4#-tj",
"spe6,1zMBBZZZBBBBZZDDZZBMz1>6qpK",
"JKst&O4MZmBSZBmmNSDHDBNBMdO&tKJJ",
"JKKu*.dCZmBDDABZZFHHDBmZC4.-ysJJ",
"sJKy-O3nCmBDDDDDDDDFDBmNb3O-uJsK",
"sssi8;<4xMZCZZZZAZZZZZMx4<;8isss",
"KKKssr-#3bCmmmmmmmmmmCn3#-tsJKJJ",
"KKJJjp0-<dxmCBBBBBBBmxd<=9aKJJKK",
"KsJJjsae:$2bACCCCCCZb2$;easJJKJs",
"KjJJjjjs0=,gklkkkkllf,-0aJJjsJJK",
"sssjsjjsiw5%$@@@@@@@$5eisjsjssss",
"JssJjJJJJs7+        +7sJJJJJJJss"
};
