/* XPM */
static char *result[] = {
/* columns rows colors chars-per-pixel */
"32 32 66 1 ",
"  c black",
". c #131103",
"X c #1B1601",
"o c #1C1800",
"O c #171508",
"+ c #101010",
"@ c #292200",
"# c #26200B",
"$ c #292509",
"% c #302A0C",
"& c #2C2B2B",
"* c #302F2F",
"= c #353433",
"- c #3C3A34",
"; c #3E3B38",
": c #4F481B",
"> c #544B16",
", c #564C18",
"< c #6B5D03",
"1 c #6F6001",
"2 c #776702",
"3 c #7F6D04",
"4 c #4A463C",
"5 c #4B4740",
"6 c #4B4A4A",
"7 c #565554",
"8 c #595857",
"9 c #5D5B5B",
"0 c #615E5E",
"q c #676565",
"w c #696766",
"e c #696867",
"r c #6C6C6B",
"t c #706E6E",
"y c #777473",
"u c #787675",
"i c #7B7876",
"p c #7E7C7B",
"a c #837305",
"s c #8B7903",
"d c #8C7A08",
"f c #907D03",
"g c #807E7D",
"h c #9A8603",
"j c #9D8903",
"k c #A68D03",
"l c #B19603",
"z c #C7AB05",
"x c #CBAF05",
"c c #CFB106",
"v c #D1B407",
"b c #DCB201",
"n c #DCBA04",
"m c #E0B702",
"M c #E4BD03",
"N c #DFC106",
"B c #E5C205",
"V c #E9C403",
"C c #EDCA05",
"Z c #F0CF07",
"A c #F3D307",
"S c #F6D709",
"D c #F7D809",
"F c #F8DA09",
"G c #81807F",
"H c #818180",
/* pixels */
"gGHggggGgi6+        +6pGggGggggg",
"gpgpggggyq4%@@@@@@@@%4qyiggppggg",
"ppggHHgp8*>djhhhhhjjd>=8gHHGGgpg",
"pggHHpiq;$1cCBBBBBBCx<$;wipHggpp",
"ggggHi7=>albMMMmnMMMnla,=8iggggp",
"gGgppe=#2cMmbbbmbbbbbBc2#=epggGg",
"iggy7-,3lmVMVMVVVVVVVVml3,-8yggp",
"Gggr=O2vMmMASFAAAASAAMbMv2O=tggg",
"gGgr=.3BVbMAFFZCVMCZAMbCB3.*rHGp",
"HGge&O3nBbBADSZmmbmZZMbMn3O*eHHp",
"gu04:<knVMCAZCMMMMMMCMMVnk<:40up",
"pw=#3zbbBAAACMMZZAZMmCZVbnz3#=ep",
"gq&XfVVbMADDZMVZFFZmbVAMbVBfo&qH",
"gq&XsBMbVADDAZZADFZMbCAVbBBso&qp",
"gw&XsNMbMADDDDDSSDZMbCAVbMNsX&qH",
"iq&XsNMbVADDDDSSSFZmbVAMbMNsX&wg",
"Gw&XsNMbMADSSSSSSDZmbVSVbMBsX&qH",
"He&osBMbVZDSSDSDSDZMmVAMbMMsX&wH",
"Hw&osBMbMSDSAZASSFZMbVSVbMVsX&qH",
"Hw&odBMbMAFDZMMZFFZmmVAMbMCfX&qH",
"pw=#3zbbVSADCmMZAAAMmVAVbnz3#=eg",
"Gy05:<knMMCAACVMMMMMCMMVnk<,59uH",
"HHHr*XanMbMADAZmbbmCAMmMn3O&eHHG",
"HHHr*.aVVbMAFDACMVCAAMbMN3.=rpGG",
"GpGr=O2vMbMZAAAAAAAAZMbmv2O=tHpH",
"pppy7-,3lnVVVVVVVVVCVCnl3,-7yppp",
"HHGGpq=#2cBbbmbbbbbbmMc2#=eppHHG",
"HHHGGi7=,slvMMMMMMMMbla>=7uHHGHH",
"HpGGgpiq;$1cCBBBBBBCx2$-qipgHHHp",
"HgGGggGi7*>shhhhhhhjd>*8iGGgpGGH",
"pppgpgGpyq4%$@@@@@@@$4qypgggpppp",
"GppGgGGGGp6+        +6pGGGGGGHpp"
};
