/* XPM */
static char *result[] = {
/* columns rows colors chars-per-pixel */
"32 32 182 2 ",
"   c #010101",
".  c #020202",
"X  c #030202",
"o  c gray1",
"O  c #040303",
"+  c #030403",
"@  c #040403",
"#  c #030304",
"$  c #040304",
"%  c #040404",
"&  c gray2",
"*  c #060606",
"=  c #070707",
"-  c #070807",
";  c gray3",
":  c #080809",
">  c #090809",
",  c #080909",
"<  c #090909",
"1  c #090A0A",
"2  c gray4",
"3  c #0B0B0B",
"4  c #0C0C0C",
"5  c gray5",
"6  c #0E0E0D",
"7  c #0E0E0E",
"8  c #0E0F0F",
"9  c gray6",
"0  c #0F1010",
"q  c #101010",
"w  c #111111",
"e  c gray7",
"r  c #131313",
"t  c gray8",
"y  c #151515",
"u  c #161515",
"i  c #161616",
"p  c #171616",
"a  c gray9",
"s  c #181717",
"d  c #181817",
"f  c #181818",
"g  c #191818",
"h  c #1B1A1A",
"j  c #1B1B1B",
"k  c #1E1E1E",
"l  c gray12",
"z  c #201F1F",
"x  c #202020",
"c  c #212020",
"v  c gray13",
"b  c #282828",
"n  c gray17",
"m  c #2D2D2D",
"M  c #313131",
"N  c #323132",
"B  c #323232",
"V  c #333332",
"C  c #323333",
"Z  c #353535",
"A  c #363434",
"S  c #363635",
"D  c #373635",
"F  c #373636",
"G  c #373736",
"H  c #373737",
"J  c #383636",
"K  c #383736",
"L  c #383737",
"P  c #393737",
"I  c #393836",
"U  c #383837",
"Y  c #393838",
"T  c #3A3838",
"R  c #3C3C3C",
"E  c #3F3D3D",
"W  c #3E3E3E",
"Q  c gray25",
"!  c #414141",
"~  c gray26",
"^  c #444343",
"/  c #444444",
"(  c #464545",
")  c #494948",
"_  c #494949",
"`  c #4A4A49",
"'  c #4B4B49",
"]  c #4B4B4B",
"[  c #4C4B4B",
"{  c #4D4C4C",
"}  c #4D4D4C",
"|  c gray30",
" . c #4E4D4C",
".. c #4E4D4D",
"X. c #525253",
"o. c #5B5B5B",
"O. c #646463",
"+. c #686766",
"@. c #6B6A69",
"#. c #6C6969",
"$. c #6D6D6C",
"%. c #6F6E6D",
"&. c #706F6F",
"*. c #747170",
"=. c #777675",
"-. c #797675",
";. c #797676",
":. c #797776",
">. c #797877",
",. c #7A7977",
"<. c #797878",
"1. c #797978",
"2. c #797979",
"3. c #7A7978",
"4. c #7B7978",
"5. c #7A7979",
"6. c #7C7A78",
"7. c #7E7A78",
"8. c #7F7A79",
"9. c #7F7B79",
"0. c #7E7B7A",
"q. c #7F7B7A",
"w. c #7E7B7B",
"e. c #7F7C79",
"r. c #7F7C7A",
"t. c #7E7C7B",
"y. c #7F7C7B",
"u. c #7F7D7B",
"i. c #7C7C7C",
"p. c #7D7C7C",
"a. c #7E7C7C",
"s. c #7F7C7C",
"d. c #7E7D7C",
"f. c #7F7D7C",
"g. c #7E7D7D",
"h. c #7F7D7D",
"j. c #7E7E7D",
"k. c #7F7E7D",
"l. c #7F7E7E",
"z. c #7F7F7E",
"x. c gray50",
"c. c #807B7A",
"v. c #807C7A",
"b. c #807C7B",
"n. c #807D7B",
"m. c #817D7B",
"M. c #807C7C",
"N. c #807D7C",
"B. c #817D7C",
"V. c #807D7D",
"C. c #807E7C",
"Z. c #817E7C",
"A. c #807E7D",
"S. c #817E7D",
"D. c #817F7D",
"F. c #827E7D",
"G. c #827F7D",
"H. c #807E7E",
"J. c #807F7E",
"K. c #817F7E",
"L. c #807F7F",
"P. c #817F7F",
"I. c #827F7E",
"U. c #81807E",
"Y. c #80807F",
"T. c #81807F",
"R. c #82807E",
"E. c #83807E",
"W. c #82807F",
"Q. c #83807F",
"!. c #83817F",
"~. c #808080",
"^. c #818080",
"/. c #818180",
"(. c #828080",
"). c #828180",
"_. c #838180",
"`. c #838280",
"'. c #838383",
"]. c #848484",
"[. c #848585",
"{. c gray65",
/* pixels */
"K.K.W.W.K.B.R.U.f.l.J.K.W.W.A.G.W.K.d.J.J.W.W.T.n.R.W.A.h.J.K.W.",
"8.y.N.y.b.n.n.B.q.q.E x z z z x z z x l l z c *.b.B.m.b.q.9.y.N.",
"r.g.L.J.K._.T.^.K.D.Y w w w w w w w w w w w e ]._.T.(.J.R.y.g.L.",
"s.l.L.^.W.T.~.L.L.A.Y q q e e w e r e e w q w ].W.~.~.L.K.N.l.l.",
"v.H.H.T.T.^.z.Y.T.A.Y q g %.' $.] &.[ #.C q w @.^.L.L.^.J.n.H.l.",
"v.I.K.N.h.H.K.W.K.A.T 9 s w._ k._ K. .6.V 9 q ;.H.A.W.K.K.b.I.K.",
"r.b.9.y.y.y.b.F.N.B.I 9 a 0.) y.( F.{ 6.B 9 0 -.s.y.Z.Z.N.b.b.8.",
"T.W.N.g.L.L.K._.^./.Y 7 i a._ x.^ )...p.B 7 9 <.Y.J.!.).^.T.W.B.",
"L.J.N.k.l.T.T.T.~.L.U 6 p g.` Y.Q T.| i.N 6 8 <.L.(.T.~.~.L.J.N.",
"/.Y.N.A.J.P.L.^.L.L.Y 5 u j._ L.W ^.} p.M 5 7 2.L.L.T.L.L.^.L.M.",
"S.K.b.F.D.N.t.A.A.D.P 4 u r._ 0.R f.{ 6.M 4 5 ,.S.y.V.N.S.S.K.r.",
"7.y.f.f.N.I.N.S.y.b.J 4 7 x j t y v h k t 4 5 :.G.S.S.N.n.9.y.f.",
"r.k.Y.L.W.).^.^.T.K.L 3 3 3 3 3 3 3 3 3 3 3 4 5._.^./.T.W.n.k.T.",
"r.l.l.^.T.T.L.L.L.A.L 3 3 3 3 3 3 3 3 3 3 3 4 5.T.~.L.L.J.f.l.g.",
"M.P.P.L.L.^.J.^.^.A.L X.[.~ 2 2 2 2 2 2 2 2 3 >.^.L.T./.L.N.P.P.",
"e.Z.Z.y.w.b.N.S.Z.n.K o.{./ 2 2 2 2 1 2 2 2 3 '.y.N.S.Z.C.v.Z.Z.",
"!.D.K.N.Z.q.s.A.f.S.Y ! b Z < < < < < < < < 2 ].q.a.k.h.A.E.S.I.",
").^.^.T.K.f.l.Y.T.W.Y Z m n < < : < > < , , 2 O.N.k.L.Y.W.).^.^.",
"^.L.L.P.H.f.l.l.).T.Y 2 2 < ; ; ; ; ; ; ; ; < 1.N.l.h.^.T.T.L.x.",
"T.J.^./.J.N.T.T.H.L.H = = = - = = = = - = = : 5.N.K.T.J.l.T.J.T.",
"M.b.Z.N.n.c.n.v.q.y.D = = = = = = = = = = = ; :.q.m.v.r.q.b.b.Z.",
"l.A.Q.W.U.H.K.b.d.H.F * * * * * * * * * * * = 3.K.S.n.a.k.H.A.R.",
"T.T.W.^.^.P.T.N.l.L.L * * * * * * * * * * * = 5.T.T.C.h.x.T.T.W.",
"T.T.T.L.z.T.J.n.l.k.L & & & & & & & & & & & * 2.L.L.N.h.k.L.T.W.",
"K.h.L.J.T.^.T.N.W.T.F & & & & & & & & & & & * 5.(.^.N.D.W.K.h.L.",
"Z.r.n.y.b.q.n.q.b.N.D % % % % % % % % % % % & -.q.b.q.b.n.B.r.N.",
"`.T.W.J.I.y.h.L.H.R.G + $ O % % + + % @ # $ & 4.n.d.J.H.K._.T.W.",
").~.Y.P.K.f.l.L.^.W.F o o o o o o o o o o o % 5.N.l.L.T.T.T.~.~.",
"^.x.L.T.H.u.l.H.^.T.F . . X . . . . . . . . % +.N.l.l.T.T.^.x.z.",
"J.H.W.T.K.n.R.K.f.k.S . . . . . . . . . . . o ].n.I.T.A.h.J.J.W.",
"r.9.y.n.y.b.S.n.n.r.A                       o ].r.F.N.B.q.q.9.s.",
"I.f.l.L.J.W.).T.L.T.E a s s s f f d s d s a g =.R.`.T.T.J.R.f.g."
};
