/* XPM */
static char *result[] = {
/* columns rows colors chars-per-pixel */
"32 32 163 2 ",
"   c #3D3D3E",
".  c #403F3E",
"X  c #3B3E41",
"o  c #3E4246",
"O  c #3D454C",
"+  c #384652",
"@  c #3C4954",
"#  c #3F6079",
"$  c #434344",
"%  c #454649",
"&  c #484749",
"*  c #4B4B4C",
"=  c #454D53",
"-  c #4F4F50",
";  c #514F50",
":  c #4F5154",
">  c #535354",
",  c #585757",
"<  c #585857",
"1  c #565659",
"2  c #585759",
"3  c #57585C",
"4  c #5B5A5C",
"5  c #744253",
"6  c #605E5E",
"7  c #4F5862",
"8  c #4A5B68",
"9  c #505B64",
"0  c #5E5E60",
"q  c #405B70",
"w  c #605B77",
"e  c #5A6269",
"r  c #5A636B",
"t  c #496275",
"y  c #556675",
"u  c #586A78",
"i  c #636364",
"p  c #696767",
"a  c #6B6866",
"s  c #666668",
"d  c #6C6B6B",
"f  c #716F6E",
"g  c #72706F",
"h  c #6A6D72",
"j  c #716F70",
"k  c #737272",
"l  c #797776",
"z  c #7A7877",
"x  c #77787B",
"c  c #7E7C7B",
"v  c #B81517",
"b  c #AE1B20",
"n  c #8E222C",
"m  c #9A363C",
"M  c #AA262A",
"N  c #B02027",
"B  c #8E4346",
"V  c #8A4458",
"C  c #994A57",
"Z  c #88777D",
"A  c #807E7D",
"S  c #92747E",
"D  c #81807F",
"F  c #4E6A80",
"G  c #5B7081",
"H  c #54758C",
"J  c #597C94",
"K  c #647583",
"L  c #777E84",
"P  c #7E7E81",
"I  c #607C90",
"U  c #807F80",
"Y  c #877D8B",
"T  c #7C858B",
"R  c #64859D",
"E  c #7C8A96",
"W  c #6C8AA1",
"Q  c #7F91A0",
"!  c #7694AA",
"~  c #6791B0",
"^  c #6594BB",
"/  c #7499B5",
"(  c #7898B1",
")  c #709FC2",
"_  c #818181",
"`  c #868688",
"'  c #80888F",
"]  c #8B8B8D",
"[  c #828C94",
"{  c #8E8E90",
"}  c #8A829C",
"|  c #939395",
" . c #979699",
".. c #989798",
"X. c #9C9B9D",
"o. c #8396A4",
"O. c #8A98A5",
"+. c #9E9EA1",
"@. c #819EB5",
"#. c #A19AAF",
"$. c #9CA1A7",
"%. c #99A7B8",
"&. c #95ABBC",
"*. c #A3A3A4",
"=. c #A7A7A9",
"-. c #A1A8AF",
";. c #AAAAAD",
":. c #AEAFB0",
">. c #AAB3BA",
",. c #B3B2B5",
"<. c #B3B6B9",
"1. c #BBBBBD",
"2. c #80ACCB",
"3. c #8CAFC9",
"4. c #9CB2C3",
"5. c #9FB7CC",
"6. c #8BADD2",
"7. c #8DB8D8",
"8. c #99B7D0",
"9. c #94B8DC",
"0. c #A3B4C2",
"q. c #AAB6C0",
"w. c #AFBDC8",
"e. c #B5BAC1",
"r. c #BFBFC0",
"t. c #A7BDD9",
"y. c #8EBCE1",
"u. c #AAC4DA",
"i. c #B2C7DF",
"p. c #B5CAD8",
"a. c #9BC6E6",
"s. c #A7CAE6",
"d. c #B4CFE6",
"f. c #B3D3E9",
"g. c #A4D3F5",
"h. c #ADD6F4",
"j. c #BCDDF3",
"k. c #BDE1F9",
"l. c #C3C3C5",
"z. c #C5C7CB",
"x. c #CCCCCD",
"c. c #CCCDD1",
"v. c #C5D2DD",
"b. c #CBD3DB",
"n. c #D3D3D6",
"m. c #D4D7DB",
"M. c #D2D9DE",
"N. c #DADADB",
"B. c #C8D7E9",
"V. c #C7DBEB",
"C. c #DBDEE2",
"Z. c #D1DEE9",
"A. c #CEE0ED",
"S. c #D8E0E7",
"D. c #CAE2F2",
"F. c #C6E6FC",
"G. c #E2E2E3",
"H. c #E8E9EB",
"J. c #EFEFF0",
"K. c #EAF0F5",
"L. c #F3F3F4",
"P. c #F7F7F8",
"I. c #FDFDFD",
/* pixels */
"A D A _ A A A A A c A A A k l s *.c d z l A D A A A A A A A A A ",
"A c c c A A A A c A c A c d c  .x.;.] h f A A A A A A A A A A A ",
"c c A k A _ A D A D c c p { *.l.G.c.,.X.f k U A A D D A A k l A ",
"A c A > i D D A U A P z ` X.n.n.L.G.c.z.T _ c A A D D D c $ k A ",
"A A A 2 p A c _ z z c z 1.*.N.J.I.L.G.1.:. .z c l A A A l > k c ",
"A D A k z c D c 4 a h d 1.n.J.I.I.I.P.N.N._ f k 2 j A A d _ k A ",
"c A c d ` a c f x s ` X.<.L.L.P.L.L.L.P.N...X.k d k z A j U j A ",
"A A c d ] k l z c k j r.H.c.Z.c.C.m.v.C.m.C.] k d ` k f ] f A A ",
"A A A l k =.d k x l k ,.S.s.A.M.J.G.Z.d.V.x.| k h ` 4 | | a T A ",
"D D A c * l *.c P k c _ e.y.i.K.I.P.B.9.u...l c a ] _ *.& k A A ",
"A A A A > $ _ <.] 4 i : K 5 M } F.t.V n K 7 4 i s ,.*.> . f A c ",
"A c c A k & $ k 1.+.` ` @ w N C j.#.b V 8 i | _ 1.X.- $ 6 A c A ",
"c A A c d & * $ > | T ;.:.J 6.B.j.D.t.^ ' l.U  .l $ * $ 4 l A D ",
"A c d > - 4 2 &   X * ] l.[ ) h.g.g.a.I ,.:.i $   $ - 0 ; * 6 l ",
"A f . & > - & % $   > ] L z 9 R 4.@.t s L L c   X $ & * > - . - ",
"c g a a i & 1 * > T %.4.( | <.Z b B -.;.E 3.0.O.s % > * < d a a ",
"D D D c 4 2 7 # $.b.p.H + h 8.S v m 4.O.% q 3.b.z.G q 4 > k A A ",
"D D c 4 : : = W 5.%.r   . i [ 8.Y &.@.L $   % E 0.3.y & > ; k U ",
"D D s $ * > . % R % . $ o $ R 3.n.w.) 3 X $ X X G 8 . % 1 $ > z ",
"D D U c c a & 2 * $ - $ . a >.G  .L ! +.. $ * * % > 1 ; c c c A ",
"c A A A c - < i - < < & $ y >.Q X u >.o.% & - 0 * 2 0 * d A A A ",
"U c D D f * < o * e < - = $.D./ X q f.p.0 - - i 2 $ - > > A A A ",
"D D D D > $ - . < e - 4 : O.4.8 $ o ! q.r 0 - 3 i $ * * $ k D D ",
"D D D z < a z , 6 * & 6 y 7.~ o * $ q y.W 0 - $ 4 > d k > a D D ",
"D c c D D A f * ; & - 4 T k.F & ; - O 7.p.2 < & & > > D D A A A ",
"A A A c A c d $ > l 4 2 T 2.O 2 < 4 & H 3.> 4 d p * ; A A A A A ",
"D D D D D c g s D c , , + @ * i * 1 1 o @ * > d A l i c D _ A D ",
"D D D D A A c D D c > & 4 & < 2 * - i * 2 > & d A c c U D D D D ",
"A T A D A A c A A D a i D i ; * a : > - A l 6 c A A A A D D c T ",
"A A D A D A D A c A U A D z & > U d $ i A A A D A D D A c D A A ",
"A A A A A A A A A A A z D A f l A D d z A z A A A A A A z A A A ",
"A c c A A D _ D D D A A A D D D D D D D A A A A A D D A A A A c "
};
