/* XPM */
static char *result[] = {
/* columns rows colors chars-per-pixel */
"32 32 151 2 ",
"   c #2E2F31",
".  c #323334",
"X  c #393733",
"o  c #363638",
"O  c #38383A",
"+  c #582805",
"@  c #463721",
"#  c #453824",
"$  c #4D3924",
"%  c #4E3F2E",
"&  c #523F2A",
"*  c #43432E",
"=  c #5E4527",
"-  c #554926",
";  c #564926",
":  c #53412B",
">  c #5E4528",
",  c #584D2D",
"<  c #464631",
"1  c #4C4333",
"2  c #4A4934",
"3  c #4D4D3C",
"4  c #524D3E",
"5  c #5D5134",
"6  c #54543D",
"7  c #58573E",
"8  c #5A583F",
"9  c #715B3A",
"0  c #7F5B3F",
"q  c #78673F",
"w  c #3F3F41",
"e  c #374870",
"r  c #434344",
"t  c #4C4B44",
"y  c #474749",
"u  c #4B4B4C",
"i  c #5C4B4B",
"p  c #545343",
"a  c #5C5B42",
"s  c #595947",
"d  c #4E4E50",
"f  c #555455",
"g  c #565658",
"h  c #585759",
"j  c #57585C",
"k  c #5C5B5C",
"l  c #605F44",
"z  c #665448",
"x  c #6C5558",
"c  c #64595A",
"v  c #685958",
"b  c #725955",
"n  c #626146",
"m  c #646449",
"M  c #67684E",
"N  c #6A694E",
"B  c #706446",
"V  c #7C6A41",
"C  c #6C6D52",
"Z  c #706D52",
"A  c #6F7156",
"S  c #727256",
"D  c #747659",
"F  c #77785C",
"G  c #797B5E",
"H  c #5F5F61",
"J  c #656466",
"K  c #666669",
"L  c #6A6A68",
"P  c #726769",
"I  c #71686B",
"U  c #7D7F62",
"Y  c #777268",
"T  c #6E6E70",
"R  c #707071",
"E  c #797674",
"W  c #7C7A77",
"Q  c #7E7C7B",
"!  c #924C06",
"~  c #875D3A",
"^  c #8C623D",
"/  c #A16C2A",
"(  c #8D6441",
")  c #926F4B",
"_  c #86744E",
"`  c #9A7E4E",
"'  c #887C59",
"]  c #9D7E50",
"[  c #95775A",
"{  c #826D63",
"}  c #807E7D",
"|  c #7F8164",
" . c #948057",
".. c #9F8050",
"X. c #948159",
"o. c #9D875C",
"O. c #9A8C5F",
"+. c #B08B4D",
"@. c #AB8454",
"#. c #AA8558",
"$. c #AE8958",
"%. c #818366",
"&. c #968C63",
"*. c #8B8E71",
"=. c #82807F",
"-. c #8E9174",
";. c #919476",
":. c #939679",
">. c #96997B",
",. c #989C7E",
"<. c #B29464",
"1. c #B69967",
"2. c #B9A06D",
"3. c #BAA876",
"4. c #C1AE7C",
"5. c #C2B27E",
"6. c #3253AE",
"7. c #305CBE",
"8. c #485485",
"9. c #566087",
"0. c #5B689B",
"q. c #7E7E80",
"w. c #4C74B6",
"e. c #6879A2",
"r. c #3D6ECB",
"t. c #807F80",
"y. c #7F8086",
"u. c #838284",
"i. c #888786",
"p. c #8D868A",
"a. c #8B8B8C",
"s. c #949496",
"d. c #9A9A9C",
"f. c #AD9691",
"g. c #A5A98B",
"h. c #B1A486",
"j. c #9F9FA2",
"k. c #A5A5A8",
"l. c #A8A7AA",
"z. c #ADAEB3",
"x. c #B7B6B6",
"c. c #C4B481",
"v. c #CCC2A5",
"b. c #CFC6B4",
"n. c #BDBDC1",
"m. c #C3C2C5",
"M. c #CDCBCE",
"N. c #C4C7D0",
"B. c #CECDD0",
"V. c #E6DDCD",
"C. c #EBE1D0",
/* pixels */
"} } t.} } } } } Q p C q.f * 6 l l l 7 * * s | q.W W Q | q.q.q.t.",
"W Q W } } } } } p A p < C | | | | | | A l 8 3 2 < < 3 W q.q.W } ",
"} Q } } } } } 4 A 6 7 D >.g.-.| | | | | | F F | D a a p } } } Q ",
"W } q.t.} Q Q 4 *.l M >.g.-.| | | S n l m n l n s s 3 W } } Q } ",
"t.t.q.| Q 4 < a F 6 N %.%.%.Z n S | | | | S l 8 < < * 4 W } } } ",
"} t.q.W 4 a D | N n n S | C S | -.g.:.| | | | | G D a 8 t } } } ",
"Q } Q 3 a D | M D N F a 6 S | ;.>.%.| | | | | D n n 8 3 E } } } ",
"} } W 2 A 6 a D N D ,.*.7 6 S %.| %.D n n n n l 8 * * 1 } } } } ",
"t.Q 3 a < a G 6 7 :.-.%.a _ ' Z U -.>.| %.D l n n n a a 6 Q q.u.",
"} } W 3 * D | 3 N ,.*.N X.1.1.' n S *.g.>.U U U G D a 4 W q.| Q ",
"} Q Q W 3 D N 2 S %.N X.1.1.1.1.1.' m S | U U D a < 4 W } } t.t.",
"W Q W 3 S m n 2 A N  .<.2.5.5.5.5.5.3.&.l n l < 2 8 2 } } t.t.q.",
"W } Q 3 a < ( B 3  .q ; , O.c.c.5.c.O.; - q o.a B ~ % t.} } Q } ",
"Q } t.W t @ ~ ' ) $.b.v p.v.5.5.c.5.v.p.v b.$.) ' ~ % } } } Q Q ",
"} } } } W t $ C 9 ..V.P v h.5.c.c.c.h.v P V.] 9 Z $ 4 } } } } } ",
"W } } } W W 4 # = ` C.[ + ` c.c.c.c...+ [ C.] > # t E } } } } } ",
"} } } } } Q E y   V <./ ! +.c.c.c.c.+.! / <.0 . r E Q q.Q } } } ",
"t.t.} } t.W y d h % ~ @.2.3.c.5.5.5.4.2.@.~ % j d r W q.u.Q =.=.",
"} t.} t.} w u t.z.j.z = ( #.<.<.<.<.#.^ > z j.z.u.d r Q t.t.t.} ",
"} } t.t.t.r J a.m.n.u.4 $ : : & : : & $ t y.n.m.a.J r Q t.| Q } ",
"} } } } Q E r K E q.y T k.m.B.M.M.B.m.k.R u E W J r E } q.Q t.} ",
"} } } } t.r d f w . H p.d.l.k.s.s.k.l.d.a.k . w g d w } q.t.} } ",
"} } } } Q r t.J f O H p.s.u.K j j K u.s.a.k O f J t.r W q.Q } } ",
"t.} } } r t.z.j.u   i h h g K i.i.J h j c i   u j.z.t.w Q Q t.} ",
"} } } W , { f.u.r   u v x x I Q Q I x x v u . r t.f.{ 5 } } } } ",
"} } } } 5 z b 5 X y L a.0.6.e.x.x.e.6.0.a.L y X 5 b z 5 } } } } ",
"} } } } Q 5 = Y y y q.u.w.7.9.i.i.9.7.w.t.q.y y Y = 5 W } } } } ",
"} } t.} } W W } Q u u 8.r.r.e O o e r.r.8.u u Q } } W } } } } } ",
"Q u.} } } Q } Q } Q y u.N.z.j h g j z.N.t.y } } } } } } } } } Q ",
"Q Q =.} } } =.} } } u k q.} d h h d q.t.H y u.} } } } } } } } Q ",
"Q Q } Q W } } } Q } u R s.u.d k k d t.s.T u } } } W } } } W W } ",
"} } Q } } } =.} } } } u o . h } u.k . o d W } } } } } } } } } } "
};
