/* XPM */
static char *result[] = {
/* columns rows colors chars-per-pixel */
"32 32 3 1 ",
"  c #597DCE",
". c #6DC2CA",
"X c #DEEED6",
/* pixels */
"XX ... XXX ... XXX ... XXX ... X",
".      ..      ..      ..      .",
"   ..      ..      ..      ..   ",
"                                ",
"                                ",
"                                ",
"                                ",
"                                ",
"XXXXX......XXXXXXXXXX......XXXXX",
" .. .XXXXXX. ..  .. .XXXXXX. .. ",
".  . ..  .. .  ..  . ..  .. .  .",
"                                ",
"                                ",
"                                ",
"                                ",
"                                ",
".XXXXX...XXXXX...XXXXX...XXXXX..",
"  XX  XX  XX  XX  XX  XX  XX  XX",
"                                ",
"..  .. ...  .. ...  .. ...  .. .",
"                                ",
"                                ",
"                                ",
"                                ",
" XXX     ...     XXX     ...    ",
"X...X  X.   .  .X...X  X.   .  .",
".   .XX.     ....   .XX.     ...",
"     ...             ...        ",
"                                ",
"                                ",
"                                ",
"                                "
};
